<svg xmlns="http://www.w3.org/2000/svg" width="16" height="21" viewBox="0 0 16 21"><g><g><g><path fill="none" stroke="#169bc8" stroke-linecap="round" stroke-linejoin="round" stroke-miterlimit="20" stroke-width="1.5" d="M13 20H3a2 2 0 0 1-2-2v-8a2 2 0 0 1 2-2h10a2 2 0 0 1 2 2v8a2 2 0 0 1-2 2z"/></g><g><path fill="none" stroke="#169bc8" stroke-linecap="round" stroke-linejoin="round" stroke-miterlimit="20" stroke-width="1.5" d="M4.27 3.56A4.002 4.002 0 0 1 12.003 5v3"/></g><g><path fill="none" stroke="#169bc8" stroke-linecap="round" stroke-linejoin="round" stroke-miterlimit="20" stroke-width="1.5" d="M8 16.09V13.5"/></g><g><path fill="none" stroke="#169bc8" stroke-linecap="round" stroke-linejoin="round" stroke-miterlimit="20" stroke-width="1.5" d="M8.53 12.22a.75.75 0 1 1-1.06 1.06.75.75 0 0 1 1.06-1.06"/></g></g></g></svg>