<svg xmlns="http://www.w3.org/2000/svg" width="24" height="20" viewBox="0 0 24 20"><g><g><g/><g><g><path fill="none" stroke="#169bc8" stroke-linecap="round" stroke-linejoin="round" stroke-miterlimit="20" stroke-width="1.5" d="M17 19v0V2a1 1 0 0 0-1-1H8a1 1 0 0 0-1 1v17"/></g><g><path fill="none" stroke="#169bc8" stroke-linecap="round" stroke-linejoin="round" stroke-miterlimit="20" stroke-width="1.5" d="M7 7v0H3a1 1 0 0 0-1 1v11"/></g><g><path fill="none" stroke="#169bc8" stroke-linecap="round" stroke-linejoin="round" stroke-miterlimit="20" stroke-width="1.5" d="M22 19v0V8a1 1 0 0 0-1-1h-4v0"/></g><g><path fill="none" stroke="#169bc8" stroke-linecap="round" stroke-linejoin="round" stroke-miterlimit="20" stroke-width="1.5" d="M9.5 15h5"/></g><g><path fill="none" stroke="#169bc8" stroke-linecap="round" stroke-linejoin="round" stroke-miterlimit="20" stroke-width="1.5" d="M13.5 15v4"/></g><g><path fill="none" stroke="#169bc8" stroke-linecap="round" stroke-linejoin="round" stroke-miterlimit="20" stroke-width="1.5" d="M10.5 19v-4"/></g><g><path fill="none" stroke="#169bc8" stroke-linecap="round" stroke-linejoin="round" stroke-miterlimit="20" stroke-width="1.5" d="M10 8.5h4"/></g><g><path fill="none" stroke="#169bc8" stroke-linecap="round" stroke-linejoin="round" stroke-miterlimit="20" stroke-width="1.5" d="M10 11.5h4"/></g><g><path fill="none" stroke="#169bc8" stroke-linecap="round" stroke-linejoin="round" stroke-miterlimit="20" stroke-width="1.5" d="M10 5.5h4"/></g><g><path fill="none" stroke="#169bc8" stroke-linecap="round" stroke-linejoin="round" stroke-miterlimit="20" stroke-width="1.5" d="M5 11.5h2"/></g><g><path fill="none" stroke="#169bc8" stroke-linecap="round" stroke-linejoin="round" stroke-miterlimit="20" stroke-width="1.5" d="M5 15h2"/></g><g><path fill="none" stroke="#169bc8" stroke-linecap="round" stroke-linejoin="round" stroke-miterlimit="20" stroke-width="1.5" d="M17 11.5h2"/></g><g><path fill="none" stroke="#169bc8" stroke-linecap="round" stroke-linejoin="round" stroke-miterlimit="20" stroke-width="1.5" d="M17 15h2"/></g><g><path fill="none" stroke="#169bc8" stroke-linecap="round" stroke-linejoin="round" stroke-miterlimit="20" stroke-width="1.5" d="M23 19H1"/></g></g></g></g></svg>