<svg width="18" height="18" xmlns="http://www.w3.org/2000/svg">

 <g>
  <title>background</title>
  <rect fill="none" id="canvas_background" height="402" width="582" y="-1" x="-1"/>
 </g>
 <g>
  <title>Layer 1</title>
  <path id="svg_5" d="m17.037752,17.037752l0,0l0,-14.222c0,-0.982 -0.796,-1.778 -1.778,-1.778l-12.444,0c-0.982,0 -1.778,0.796 -1.778,1.778l0,10.667c0,0.982 0.796,1.778 1.778,1.778l10.889,0l0,0l3.333,1.777z" stroke-width="1.5" stroke-miterlimit="20" stroke-linejoin="round" stroke-linecap="round" stroke="#169bc8" fill="none"/>
  <path id="svg_7" d="m8.999,11.796a0.174,0.174 0 1 0 0.175,0.174a0.173,0.173 0 0 0 -0.175,-0.174" stroke-width="1.5" stroke-miterlimit="20" stroke-linejoin="round" stroke-linecap="round" stroke="#169bc8" fill="none"/>
  <path id="svg_9" d="m8.996,9.075l0,0l0,-0.24c0,-0.787 0.486,-1.213 0.974,-1.54c0.476,-0.32 0.953,-0.738 0.953,-1.509a1.926,1.926 0 0 0 -1.926,-1.926c-1.064,0 -1.927,0.86 -1.927,1.924" stroke-width="1.5" stroke-miterlimit="20" stroke-linejoin="round" stroke-linecap="round" stroke="#169bc8" fill="none"/>
 </g>
</svg>