<svg xmlns="http://www.w3.org/2000/svg" width="33" height="24" viewBox="0 0 33 24"><defs><mask id="bylwb" width="2" height="2" x="-1" y="-1"><path fill="#fff" d="M2 1h29v20H2z"/><path d="M2 4a3 3 0 0 1 3-3h23a3 3 0 0 1 3 3v14a3 3 0 0 1-3 3H5a3 3 0 0 1-3-3z"/></mask><filter id="bylwa" width="55" height="47" x="-11" y="-12" filterUnits="userSpaceOnUse"><feOffset dy="1" in="SourceGraphic" result="FeOffset1025Out"/><feGaussianBlur in="FeOffset1025Out" result="FeGaussianBlur1026Out" stdDeviation="1.2 1.2"/></filter></defs><g><g><g><g filter="url(#bylwa)"><path fill="none" d="M2 4a3 3 0 0 1 3-3h23a3 3 0 0 1 3 3v14a3 3 0 0 1-3 3H5a3 3 0 0 1-3-3z" mask="url(&quot;#bylwb&quot;)"/><path fill="#051f28" fill-opacity=".2" d="M2 4a3 3 0 0 1 3-3h23a3 3 0 0 1 3 3v14a3 3 0 0 1-3 3H5a3 3 0 0 1-3-3z"/></g><path fill="#169bc8" d="M2 4a3 3 0 0 1 3-3h23a3 3 0 0 1 3 3v14a3 3 0 0 1-3 3H5a3 3 0 0 1-3-3z"/></g><g><path fill="none" stroke="#fff" stroke-linecap="round" stroke-linejoin="round" stroke-miterlimit="20" stroke-width="2" d="M12.07 12.567v0l2.864 3.532v0l5.192-9.659v0"/></g></g></g></svg>