<svg xmlns="http://www.w3.org/2000/svg" width="12" height="12" viewBox="0 0 12 12"><g><g opacity=".5"><path fill="#5a6166" d="M0 6a6 6 0 1 1 12 0A6 6 0 0 1 0 6zm8.716-2.76l-.025-.026c-.224-.222-.537-.27-.7-.107l-2 1.996-2.144-2.141c-.166-.165-.484-.117-.71.11l-.026.025c-.226.225-.275.542-.109.708l2.145 2.14-2.093 2.09c-.163.164-.115.476.108.699l.025.025c.223.223.537.271.7.108l2.092-2.09L8.004 8.8c.166.165.484.116.71-.11l.026-.025c.226-.226.275-.543.109-.709L6.824 5.935l2-1.997c.163-.163.115-.476-.108-.699z"/></g></g></svg>