<svg xmlns="http://www.w3.org/2000/svg" width="46" height="46" viewBox="0 0 46 46"><defs><mask id="7i3pb" width="2" height="2" x="-1" y="-1"><path fill="#fff" d="M2 1h42v42H2z"/><path d="M2 4a3 3 0 0 1 3-3h36a3 3 0 0 1 3 3v36a3 3 0 0 1-3 3H5a3 3 0 0 1-3-3z"/></mask><filter id="7i3pa" width="68" height="69" x="-11" y="-12" filterUnits="userSpaceOnUse"><feOffset dy="1" in="SourceGraphic" result="FeOffset1025Out"/><feGaussianBlur in="FeOffset1025Out" result="FeGaussianBlur1026Out" stdDeviation="1.2 1.2"/></filter></defs><g><g><g><g filter="url(#7i3pa)"><path fill="none" d="M2 4a3 3 0 0 1 3-3h36a3 3 0 0 1 3 3v36a3 3 0 0 1-3 3H5a3 3 0 0 1-3-3z" mask="url(&quot;#7i3pb&quot;)"/><path fill="#051f28" fill-opacity=".1" d="M2 4a3 3 0 0 1 3-3h36a3 3 0 0 1 3 3v36a3 3 0 0 1-3 3H5a3 3 0 0 1-3-3z"/></g><path fill="#e5e9ea" d="M2 4a3 3 0 0 1 3-3h36a3 3 0 0 1 3 3v36a3 3 0 0 1-3 3H5a3 3 0 0 1-3-3z"/></g><g><g><path fill="none" stroke="#6e7b7f" stroke-linecap="round" stroke-miterlimit="20" stroke-width="1.5" d="M16 15l15 15"/></g><g><path fill="none" stroke="#6e7b7f" stroke-linecap="round" stroke-miterlimit="20" stroke-width="1.5" d="M31 15L16 30"/></g></g></g></g></svg>