<svg xmlns="http://www.w3.org/2000/svg" width="186" height="162" viewBox="0 0 186 162"><g><g><g/><g><path fill="none" stroke="#97a6ab" stroke-linecap="round" stroke-linejoin="round" stroke-miterlimit="20" stroke-opacity=".5" stroke-width="2" d="M161 61v0-10c0-11.05-8.95-20-20-20H96.35a10 10 0 0 1-8.32-4.45L73.97 5.46A9.998 9.998 0 0 0 65.65 1H21C9.95 1 1 9.95 1 21v128.53C1 155.87 6.13 161 12.47 161v0c5.06 0 9.53-3.32 10.98-8.17l23.27-77.57A20.002 20.002 0 0 1 65.88 61h98.41c13.35 0 22.95 12.82 19.19 25.63l-17.61 60A19.995 19.995 0 0 1 146.68 161H12.47v0"/></g></g></g></svg>