<svg width="327.2" height="327.2" xmlns="http://www.w3.org/2000/svg">

 <g>
  <title>background</title>
  <rect fill="none" id="canvas_background" height="602" width="802" y="-1" x="-1"/>
 </g>
 <g>
  <title>Layer 1</title>
  <g id="svg_1">
   <g id="svg_2">
    <path fill="#169bc8" id="svg_3" d="m303.6,197.6l0,-184c0,-3.6 -2.8,-6.4 -6.4,-6.4l-267.2,0c-3.6,0 -6.4,2.8 -6.4,6.4l0,184c-13.2,0.4 -23.6,9.6 -23.6,21.2c0,11.6 10.8,21.2 24.4,21.2l80.8,0l-32,71.2c-1.6,3.2 0,6.8 3.2,8.4c0.8,0.4 1.6,0.4 2.4,0.4c2.4,0 4.8,-1.2 5.6,-3.6l34.4,-76.4l89.6,0l34.4,76.4c1.2,2.4 3.2,3.6 5.6,3.6c0.8,0 1.6,0 2.4,-0.4c3.2,-1.6 4.4,-5.2 3.2,-8.4l-32,-71.2l80.8,0c13.2,0 24.4,-9.6 24.4,-21.2c0,-11.6 -10.4,-21.2 -23.6,-21.2zm-267.6,-178l255.2,0l0,177.6l-14,0l0,-155.2c0,-3.6 -2.8,-6.4 -6.4,-6.4l-214.4,0c-3.6,0 -6.4,2.8 -6.4,6.4l0,155.2l-14,0l0,-177.6zm228.4,28.8l0,149.2l-201.6,0l0,-149.2l201.6,0zm38.4,178.8l-90.4,0l-188,0c-6.4,0 -11.6,-4 -11.6,-8.8s5.2,-8.8 11.6,-8.8l278.8,0c6.4,0 11.6,4 11.6,8.8s-5.6,8.8 -12,8.8z"/>
   </g>
  </g>
  <g id="svg_4">
   <g id="svg_5">
    <path fill="#169bc8" id="svg_6" d="m144.8,70.4l-48,0c-3.6,0 -6.4,2.8 -6.4,6.4s2.8,6.4 6.4,6.4l48,0c3.6,0 6.4,-2.8 6.4,-6.4s-2.8,-6.4 -6.4,-6.4z"/>
   </g>
  </g>
  <g id="svg_7">
   <g id="svg_8">
    <path fill="#169bc8" id="svg_9" d="m230.4,101.6l-133.6,0c-3.6,0 -6.4,2.8 -6.4,6.4c0,3.6 2.8,6.4 6.4,6.4l133.6,0c3.6,0 6.4,-2.8 6.4,-6.4c0,-3.6 -2.8,-6.4 -6.4,-6.4z"/>
   </g>
  </g>
  <g id="svg_10">
   <g id="svg_11">
    <path fill="#169bc8" id="svg_12" d="m230.4,132.4l-133.6,0c-3.6,0 -6.4,2.8 -6.4,6.4s2.8,6.4 6.4,6.4l133.6,0c3.6,0 6.4,-2.8 6.4,-6.4s-2.8,-6.4 -6.4,-6.4z"/>
   </g>
  </g>
  <g id="svg_13"/>
  <g id="svg_14"/>
  <g id="svg_15"/>
  <g id="svg_16"/>
  <g id="svg_17"/>
  <g id="svg_18"/>
  <g id="svg_19"/>
  <g id="svg_20"/>
  <g id="svg_21"/>
  <g id="svg_22"/>
  <g id="svg_23"/>
  <g id="svg_24"/>
  <g id="svg_25"/>
  <g id="svg_26"/>
  <g id="svg_27"/>
 </g>
</svg>