<svg xmlns="http://www.w3.org/2000/svg" width="20" height="18" viewBox="0 0 20 18"><g><g><g><path fill="#2ebff0" fill-opacity=".3" d="M17 3.94h-6.471a1 1 0 0 1-.827-.438L8.297 1.437A1 1 0 0 0 7.471 1H3a2 2 0 0 0-2 2v12a2 2 0 0 0 2 2h14a2 2 0 0 0 2-2V5.94a2 2 0 0 0-2-2z"/><path fill="none" stroke="#2ebff0" stroke-linecap="round" stroke-linejoin="round" stroke-miterlimit="20" stroke-width="1.5" d="M17 3.94h-6.471a1 1 0 0 1-.827-.438L8.297 1.437A1 1 0 0 0 7.471 1H3a2 2 0 0 0-2 2v12a2 2 0 0 0 2 2h14a2 2 0 0 0 2-2V5.94a2 2 0 0 0-2-2z"/></g><g/></g></g></svg>