<svg xmlns="http://www.w3.org/2000/svg" width="18" height="20" viewBox="0 0 18 20"><g><g><g><path fill="none" stroke="#169bc8" stroke-linecap="round" stroke-linejoin="round" stroke-miterlimit="20" stroke-width="1.5" d="M17 9.242c0 4.368-3.157 8.462-7.48 9.686a1.914 1.914 0 0 1-1.04 0C4.157 17.705 1 13.61 1 9.242V5.214a2 2 0 0 1 1.243-1.851l4.864-1.99a4.996 4.996 0 0 1 3.787 0l4.864 1.99A2 2 0 0 1 17 5.213z"/></g><g><path fill="none" stroke="#169bc8" stroke-linecap="round" stroke-linejoin="round" stroke-miterlimit="20" stroke-width="1.5" d="M10.537 9.925A2.063 2.063 0 0 0 10.984 8a2.034 2.034 0 0 0-1.433-1.428A2.063 2.063 0 0 0 6.94 8.559c0 .525.197 1.003.52 1.366.232.26.326.613.231.948l-.386 1.353a1 1 0 0 0 .962 1.275h1.466a1 1 0 0 0 .962-1.275l-.386-1.353a1.002 1.002 0 0 1 .228-.948z"/></g></g></g></svg>