<svg xmlns="http://www.w3.org/2000/svg" width="20" height="16" viewBox="0 0 20 16"><g><g><g/><g><g><g><path fill="none" stroke="#2fb119" stroke-linecap="round" stroke-linejoin="round" stroke-miterlimit="20" stroke-width="1.5" d="M19 10.048v0L13.278 5.91v0L8.48 10.366v0L5.837 8.79v0L1 12.426v0"/></g><g><path fill="#2fb119" fill-opacity=".2" d="M16.75 15H3.25C2.008 15 1 14.104 1 13V3c0-1.104 1.008-2 2.25-2h13.5C17.992 1 19 1.896 19 3v10c0 1.104-1.008 2-2.25 2z"/><path fill="none" stroke="#2fb119" stroke-linecap="round" stroke-linejoin="round" stroke-miterlimit="20" stroke-width="1.5" d="M16.75 15H3.25C2.008 15 1 14.104 1 13V3c0-1.104 1.008-2 2.25-2h13.5C17.992 1 19 1.896 19 3v10c0 1.104-1.008 2-2.25 2z"/></g></g></g></g></g></svg>