<svg xmlns="http://www.w3.org/2000/svg" width="18" height="18" viewBox="0 0 18 18"><g><g><g/><g><path fill="none" stroke="#8e9a9e" stroke-linecap="round" stroke-linejoin="round" stroke-miterlimit="20" stroke-width="1.5" d="M17 17v0V2.778C17 1.796 16.204 1 15.222 1H2.778C1.796 1 1 1.796 1 2.778v10.667c0 .982.796 1.778 1.778 1.778h10.889v0z"/></g><g><path fill="none" stroke="#8e9a9e" stroke-linecap="round" stroke-linejoin="round" stroke-miterlimit="20" stroke-width="1.5" d="M8.999 11.796a.174.174 0 1 0 .175.174.173.173 0 0 0-.175-.174"/></g><g><path fill="none" stroke="#8e9a9e" stroke-linecap="round" stroke-linejoin="round" stroke-miterlimit="20" stroke-width="1.5" d="M8.996 9.075v0-.24c0-.787.486-1.213.974-1.54.476-.32.953-.738.953-1.509A1.926 1.926 0 0 0 8.997 3.86c-1.064 0-1.927.86-1.927 1.924"/></g></g></g></svg>