<svg xmlns="http://www.w3.org/2000/svg" width="20" height="22" viewBox="0 0 20 22"><g><g><g><path fill="none" stroke="#8e9a9e" stroke-linecap="round" stroke-linejoin="round" stroke-miterlimit="20" stroke-width="1.5" d="M6.168 20.057A11.941 11.941 0 0 1 4 13.18c0-3.314 2.685-6 5.997-6a5.998 5.998 0 0 1 5.997 6"/></g><g><path fill="none" stroke="#8e9a9e" stroke-linecap="round" stroke-linejoin="round" stroke-miterlimit="20" stroke-width="1.5" d="M16.32 19.164c-.108.006-.214.016-.323.016a5.998 5.998 0 0 1-5.997-6"/></g><g><path fill="none" stroke="#8e9a9e" stroke-linecap="round" stroke-linejoin="round" stroke-miterlimit="20" stroke-width="1.5" d="M11.251 20.822a8.994 8.994 0 0 1-4.245-7.642 3 3 0 1 1 5.998 0 3 3 0 1 0 5.998 0c0-4.971-4.028-9-8.996-9-4.968 0-8.996 4.029-8.996 9 0 1.108.124 2.187.352 3.227"/></g><g><path fill="none" stroke="#8e9a9e" stroke-linecap="round" stroke-linejoin="round" stroke-miterlimit="20" stroke-width="1.5" d="M18.376 4.974a11.125 11.125 0 0 0-8.373-3.794A11.125 11.125 0 0 0 1.63 4.974"/></g></g></g></svg>