<?xml version="1.0" encoding="utf-8"?>
<!-- Generator: Adobe Illustrator 16.0.0, SVG Export Plug-In . SVG Version: 6.00 Build 0)  -->
<!DOCTYPE svg PUBLIC "-//W3C//DTD SVG 1.1//EN" "http://www.w3.org/Graphics/SVG/1.1/DTD/svg11.dtd">
<svg version="1.1" id="Layer_1" xmlns="http://www.w3.org/2000/svg" xmlns:xlink="http://www.w3.org/1999/xlink" x="0px" y="0px"
	 width="57.684px" height="58.139px" viewBox="75.083 46.827 57.684 58.139" enable-background="new 75.083 46.827 57.684 58.139"
	 xml:space="preserve">
<path fill="#126B03" d="M93.167,46.827v32.428c0,3.442-4.047,6.236-9.042,6.236s-9.042-2.793-9.042-6.236V46.827H93.167z"/>
<path fill="#126B03" d="M112.967,46.827v32.428c0,3.442-4.047,6.236-9.042,6.236s-9.042-2.794-9.042-6.236V46.827H112.967z"/>
<path fill="#126B03" d="M132.767,46.827v32.428c0,3.442-4.047,6.236-9.042,6.236s-9.042-2.794-9.042-6.236V46.827H132.767z"/>
<g>
	<path fill="#FFFFFF" d="M82.628,75.966V55.538c0-0.244-0.081-0.368-0.337-0.368H79.81c-0.224,0-0.361-0.112-0.361-0.393v-1.421
		c0-0.244,0.106-0.393,0.361-0.393h8.113c0.212,0,0.362,0.106,0.362,0.393v1.421c0,0.231-0.1,0.393-0.362,0.393h-2.507
		c-0.237,0-0.306,0.106-0.306,0.368v20.429c0,0.231-0.106,0.393-0.362,0.393h-1.752C82.766,76.359,82.628,76.247,82.628,75.966z"/>
</g>
<g>
	<path fill="#FFFFFF" d="M98.812,70.743c0-0.231,0.063-0.355,0.25-0.355h1.728c0.162,0,0.28,0.081,0.299,0.318
		c0.037,1.934,0.966,3.599,2.631,3.599c1.578,0,2.532-1.397,2.532-3.318c0-5.045-7.122-7.009-7.122-12.971
		c0-2.868,1.684-5.001,4.428-5.001c2.894,0,4.509,2.183,4.509,5.151c0,0.25-0.081,0.374-0.268,0.374h-1.709
		c-0.162,0-0.287-0.062-0.299-0.318c-0.025-1.678-0.873-3.105-2.17-3.105c-1.272,0-2.114,1.247-2.052,2.856
		c0.237,4.197,7.065,6.735,7.065,12.865c0,3.585-2.208,5.556-4.908,5.556C100.72,76.393,98.812,74.254,98.812,70.743z"/>
</g>
<g>
	<path fill="#FFFFFF" d="M118.935,70.032V59.368c0-3.879,1.659-6.361,4.814-6.361c3.093,0,4.727,2.413,4.727,5.974
		c0,0.212-0.038,0.355-0.237,0.355h-1.821c-0.193,0-0.331-0.119-0.331-0.337c0-2.469-0.823-3.686-2.326-3.686
		c-1.49,0-2.351,1.235-2.351,3.686v11.387c0,2.451,0.861,3.686,2.351,3.686c1.509,0,2.345-1.235,2.345-3.686v-4.403
		c0-0.243-0.093-0.38-0.349-0.38h-1.746c-0.193,0-0.318-0.106-0.318-0.38v-1.222c0-0.231,0.081-0.38,0.318-0.38h4.097
		c0.193,0,0.318,0.106,0.318,0.38v6.155c0,3.71-1.59,6.229-4.683,6.229C120.6,76.393,118.935,73.911,118.935,70.032z"/>
</g>
<g>
	<path fill="#126B03" d="M76.18,104.567V91.434c0-0.143,0.063-0.23,0.218-0.23h2.432c1.609,0,2.738,1.435,2.738,3.561v1.079
		c0,1.409-0.405,2.594-1.179,3.019c-0.1,0.081-0.106,0.193-0.075,0.305l1.559,5.351c0.062,0.193,0,0.287-0.175,0.287h-0.985
		c-0.193,0-0.287-0.081-0.331-0.25l-1.378-4.977c-0.031-0.125-0.069-0.174-0.156-0.174h-1.073c-0.081,0-0.119,0.043-0.119,0.187
		v4.982c0,0.137-0.063,0.237-0.218,0.237h-1.047C76.261,104.798,76.18,104.729,76.18,104.567z M78.725,98.019
		c0.842,0,1.384-0.823,1.384-2.201v-1.104c0-1.378-0.542-2.201-1.384-2.201h-0.885c-0.119,0-0.181,0.038-0.181,0.218v5.064
		c0,0.156,0.05,0.218,0.181,0.218h0.885V98.019z"/>
	<path fill="#126B03" d="M83.159,104.567V91.434c0-0.143,0.062-0.23,0.218-0.23h3.947c0.131,0,0.218,0.068,0.218,0.23v0.849
		c0,0.143-0.063,0.23-0.218,0.23h-2.507c-0.119,0-0.181,0.038-0.181,0.218v4.203c0,0.156,0.05,0.218,0.181,0.218h1.933
		c0.131,0,0.218,0.068,0.218,0.231v0.848c0,0.143-0.063,0.237-0.218,0.237h-1.933c-0.119,0-0.181,0.038-0.181,0.218v4.571
		c0,0.156,0.05,0.218,0.181,0.218h2.507c0.131,0,0.218,0.069,0.218,0.231v0.848c0,0.144-0.063,0.237-0.218,0.237h-3.947
		C83.246,104.798,83.159,104.729,83.159,104.567z"/>
	<path fill="#126B03" d="M89.183,104.567V91.434c0-0.143,0.063-0.23,0.218-0.23h2.507c1.565,0,2.738,1.359,2.738,3.673v1.304
		c0,2.313-1.172,3.604-2.738,3.604h-1.066c-0.118,0-0.181,0.037-0.181,0.218v4.559c0,0.137-0.063,0.237-0.218,0.237h-1.042
		C89.264,104.798,89.183,104.729,89.183,104.567z M91.808,98.468c0.817,0,1.384-0.842,1.384-2.313v-1.329
		c0-1.472-0.567-2.313-1.384-2.313h-0.967c-0.118,0-0.181,0.038-0.181,0.218v5.519c0,0.156,0.05,0.218,0.181,0.218H91.808z"/>
	<path fill="#126B03" d="M95.656,101.106v-6.211c0-2.251,0.917-3.854,2.869-3.854c1.946,0,2.862,1.603,2.862,3.854v6.211
		c0,2.283-0.923,3.854-2.862,3.854C96.579,104.96,95.656,103.389,95.656,101.106z M99.915,101.53v-7.06
		c0-1.303-0.518-2.058-1.391-2.058s-1.391,0.754-1.391,2.058v7.06c0,1.172,0.486,2.052,1.391,2.052S99.915,102.709,99.915,101.53z"
		/>
	<path fill="#126B03" d="M103.002,104.567V91.434c0-0.143,0.063-0.23,0.218-0.23h2.432c1.609,0,2.737,1.435,2.737,3.561v1.079
		c0,1.409-0.405,2.594-1.178,3.019c-0.1,0.081-0.106,0.193-0.075,0.305l1.559,5.351c0.063,0.193,0,0.287-0.174,0.287h-0.985
		c-0.193,0-0.287-0.081-0.331-0.25l-1.378-4.977c-0.031-0.125-0.068-0.174-0.156-0.174h-1.073c-0.081,0-0.118,0.043-0.118,0.187
		v4.982c0,0.137-0.063,0.237-0.218,0.237h-1.042C103.083,104.798,103.002,104.729,103.002,104.567z M105.552,98.019
		c0.842,0,1.385-0.823,1.385-2.201v-1.104c0-1.378-0.542-2.201-1.385-2.201h-0.885c-0.119,0-0.181,0.038-0.181,0.218v5.064
		c0,0.156,0.05,0.218,0.181,0.218h0.885V98.019z"/>
	<path fill="#126B03" d="M111.028,104.567V92.731c0-0.144-0.05-0.218-0.2-0.218h-1.478c-0.131,0-0.218-0.068-0.218-0.23v-0.849
		c0-0.143,0.063-0.23,0.218-0.23h4.827c0.125,0,0.212,0.063,0.212,0.23v0.849c0,0.137-0.063,0.23-0.212,0.23h-1.497
		c-0.137,0-0.181,0.063-0.181,0.218v11.836c0,0.137-0.063,0.237-0.218,0.237h-1.042
		C111.109,104.798,111.028,104.729,111.028,104.567z"/>
	<path fill="#126B03" d="M115.518,104.567V91.434c0-0.143,0.063-0.23,0.212-0.23h1.041c0.131,0,0.218,0.068,0.218,0.23v13.133
		c0,0.137-0.062,0.237-0.218,0.237h-1.041C115.599,104.798,115.518,104.729,115.518,104.567z"/>
	<path fill="#126B03" d="M118.786,104.567V91.434c0-0.143,0.062-0.237,0.218-0.237h0.798c0.137,0,0.212,0.069,0.274,0.237
		l2.994,9.03c0.031,0.087,0.112,0.068,0.112-0.025v-9.005c0-0.143,0.062-0.237,0.218-0.237h1.041c0.119,0,0.2,0.05,0.2,0.237v13.133
		c0,0.156-0.063,0.231-0.2,0.231h-0.811c-0.144,0-0.206-0.056-0.274-0.231l-2.981-8.868c-0.037-0.1-0.118-0.081-0.118,0.025v8.843
		c0,0.137-0.063,0.237-0.218,0.237h-1.042C118.867,104.798,118.786,104.729,118.786,104.567z"/>
	<path fill="#126B03" d="M126.256,101.175v-6.349c0-2.307,0.985-3.785,2.869-3.785c1.846,0,2.813,1.434,2.813,3.555
		c0,0.125-0.025,0.212-0.144,0.212h-1.085c-0.112,0-0.193-0.068-0.193-0.2c0-1.472-0.493-2.195-1.384-2.195
		c-0.886,0-1.397,0.736-1.397,2.195v6.779c0,1.459,0.511,2.195,1.397,2.195c0.898,0,1.396-0.736,1.396-2.195v-2.619
		c0-0.144-0.056-0.225-0.206-0.225h-1.042c-0.119,0-0.187-0.063-0.187-0.225v-0.723c0-0.137,0.05-0.225,0.187-0.225h2.438
		c0.119,0,0.193,0.063,0.193,0.225v3.667c0,2.208-0.948,3.705-2.788,3.705C127.242,104.96,126.256,103.482,126.256,101.175z"/>
</g>
</svg>
