<svg xmlns="http://www.w3.org/2000/svg" width="33" height="36" viewBox="0 0 33 36"><defs><linearGradient id="uufla" x1="16.3" x2="16.3" y1="0" y2="35.67" gradientUnits="userSpaceOnUse"><stop offset="0" stop-color="#30ebf2"/><stop offset="1" stop-color="#2d97ee"/></linearGradient></defs><g><g><g><path fill="url(#uufla)" d="M6.047 15.94l1.216-.71.701 1.229-1.215.71zm1.927.519l1.222-.71.705 1.23-1.221.709zm1.927.52l1.222-.71.706 1.229-1.222.709zm-.705-1.23l-.705-1.228 1.221-.71.706 1.23zm.197-5.06l.705 1.228-1.221.71-.706-1.23zm4.428 2.037l-1.222.71-.705-1.229 1.221-.71zm-1.228.71l.701 1.222-1.215.705-.702-1.222zm-4.946 8.13l1.037 1.812.814-1.423-.63-1.1zM3.226 11.022l1.215-.706.702 1.222-1.215.706zm3.154-.187L4.964 8.378l1.226-.71 1.416 2.458zm-1.227.706l1.221-.706.706 1.223-1.222.705zM1.815 8.568l1.222-.71.705 1.23-1.222.709zM.509 4.748l.88-.511-.508-.886L0 3.862zm1.394-2.864l.325.574.564-.331-.326-.574zm2.496.748l-.88.511.508.886.88-.512zm1.815.39l.326.574.564-.331-.326-.573zm1.612.513l.51.886.88-.512-.509-.886zM11.14 8.04l.705 1.225 1.214-.705-.705-1.23-1.222.71-.705-1.228 1.221-.71-.705-1.228-1.222.71.706 1.228-1.222.71-.683-1.19-2.336 1.336L5.48 6.44l1.222-.71-.706-1.228-1.221.71.705 1.228-2.443 1.419L2.33 6.63l1.222-.71-.706-1.228-1.221.71.705 1.228-1.221.71.705 1.228-1.222.71.706 1.228 1.221-.71.706 1.23-1.222.709L4.12 15.42l1.222-.71-.706-1.228 1.222-.71.706 1.229-1.222.71.705 1.228-1.222.71 2.117 3.685 1.221-.71-.705-1.228 1.222-.71.705 1.23-1.222.709.706 1.228 1.222-.709.222.387.051-.09 3.943-6.869-.486-.847 1.222-.71-1.28-2.227-1.221.71-.703-1.225-2.442 1.415L7.982 8.23l1.225-.709.707 1.229zm.705 1.225l-.008.004.003.004.007-.004zM7.282 1.39l.564-.327L7.52.497l-.564.327zm-2.2-.824L4.756 0l-.564.327.326.567zm6.535 19.875l-2.306 4.016 6.44 11.212L32.605 6.333H19.721l-7.665 13.344z"/></g></g></g></svg>