<svg width="496" height="496" xmlns="http://www.w3.org/2000/svg">

 <g>
  <title>background</title>
  <rect fill="none" id="canvas_background" height="602" width="802" y="-1" x="-1"/>
 </g>
 <g>
  <title>Layer 1</title>
  <path fill="#636b6f" id="svg_1" d="m496,414.20703l0,-60.42187l-23.14453,-5.91407c-0.16016,-0.39062 -0.32031,-0.78125 -0.48828,-1.16797l12.18359,-20.53515l-42.72656,-42.72656l-20.53516,12.18359c-0.39453,-0.16797 -0.78515,-0.32812 -1.16797,-0.48828l-5.91406,-23.13672l-60.42187,0l-5.91407,23.14453c-0.39062,0.16016 -0.78125,0.32031 -1.16797,0.48828l-20.53515,-12.18359l-42.72656,42.72656l12.18359,20.53516c-0.16797,0.39453 -0.32812,0.78515 -0.48828,1.16797l-23.13672,5.91406l0,60.42187l23.14453,5.91407c0.16016,0.39062 0.32031,0.78125 0.48828,1.16797l-12.18359,20.53515l42.72656,42.72656l20.53516,-12.18359c0.39453,0.16797 0.78515,0.32813 1.16797,0.48828l5.91406,23.13672l60.42187,0l5.91407,-23.14453c0.39062,-0.16016 0.78125,-0.32031 1.16797,-0.48828l20.53515,12.18359l42.72656,-42.72656l-12.18359,-20.53516c0.16797,-0.39453 0.32813,-0.78515 0.48828,-1.16797l23.13672,-5.91406zm-31.54297,25.09766l-25.15234,25.15234l-17.09766,-10.14453l-3.84765,1.83984c-2.48047,1.17579 -5.01563,2.23829 -7.625,3.16016l-4.03125,1.42969l-4.91016,19.25781l-35.57813,0l-4.91015,-19.25781l-4.03125,-1.42969c-2.60938,-0.91406 -5.15235,-1.97656 -7.625,-3.16016l-3.84766,-1.83984l-17.09765,10.14453l-25.15235,-25.15234l10.14453,-17.09766l-1.83984,-3.84765c-1.17578,-2.48047 -2.23828,-5.01563 -3.16016,-7.625l-1.42968,-4.03125l-19.26563,-4.91016l0,-35.57813l19.25781,-4.91015l1.42969,-4.03125c0.91406,-2.60938 1.97656,-5.15235 3.16016,-7.625l1.83984,-3.84766l-10.14453,-17.09765l25.15234,-25.15235l17.09766,10.14453l3.84766,-1.83984c2.48046,-1.17578 5.01562,-2.23828 7.625,-3.16016l4.03125,-1.42968l4.91015,-19.26563l35.57813,0l4.91015,19.25781l4.03125,1.42969c2.60938,0.91406 5.15235,1.97656 7.625,3.16016l3.84766,1.83984l17.09766,-10.14453l25.15234,25.15234l-10.14453,17.09766l1.83984,3.84766c1.17578,2.48046 2.23828,5.01562 3.16016,7.625l1.42969,4.03125l19.26562,4.91015l0,35.57813l-19.25781,4.91015l-1.42969,4.03125c-0.91406,2.60938 -1.97656,5.15235 -3.16016,7.625l-1.83984,3.84766l10.14453,17.10547zm0,0"/>
  <path fill="#636b6f" id="svg_2" d="m384,320c-35.28906,0 -64,28.71094 -64,64s28.71094,64 64,64s64,-28.71094 64,-64s-28.71094,-64 -64,-64zm0,112c-26.47266,0 -48,-21.52734 -48,-48s21.52734,-48 48,-48s48,21.52734 48,48s-21.52734,48 -48,48zm0,0"/>
  <path fill="#636b6f" id="svg_3" d="m384,352c-17.64844,0 -32,14.35156 -32,32s14.35156,32 32,32s32,-14.35156 32,-32s-14.35156,-32 -32,-32zm0,48c-8.82422,0 -16,-7.17578 -16,-16s7.17578,-16 16,-16s16,7.17578 16,16s-7.17578,16 -16,16zm0,0"/>
  <path fill="#636b6f" stroke="#636b6f" id="svg_4" d="m202.60156,135.45703c2.67969,7.85547 7.34375,14.78125 13.39844,20.22266l0,6.78515l-38.03906,14.26172c-15.52735,5.81641 -25.96094,20.86719 -25.96094,37.44922l0,41.82422l192,0l0,-41.82422c0,-16.58203 -10.43359,-31.63281 -25.95312,-37.45703l-38.04688,-14.26172l0,-6.77734c6.05469,-5.4336 10.71875,-12.35938 13.39844,-20.22266c15.07422,-2.58594 26.60156,-15.66406 26.60156,-31.45703l0,-32c0,-39.69531 -32.29687,-72 -72,-72s-72,32.30469 -72,72l0,32c0,15.79297 11.52734,28.87109 26.60156,31.45703zm61.39844,30.32813l-16,26.66406l-16,-26.66406l0,-0.58594c5.01563,1.78516 10.38281,2.80078 16,2.80078s10.98438,-1.02344 16,-2.80078l0,0.58594zm-43.43359,12.04687l16.1289,26.8711l-16.02343,8.00781l-10.35157,-31.03906l10.2461,-3.83985zm107.43359,36.34375l0,25.82422l-160,0l0,-25.82422c0,-9.95312 6.25781,-18.97656 15.57422,-22.47265l11.76172,-4.40625l15.99219,47.98437l36.67187,-18.33594l36.67188,18.33594l15.99218,-47.98437l11.76953,4.41406c9.3086,3.48828 15.56641,12.51172 15.56641,22.46484zm-42.32031,-32.5039l-10.35156,31.04687l-16.02344,-8.00781l16.1289,-26.87891l10.2461,3.83985zm-37.67969,-29.67188c-17.64844,0 -32,-14.35156 -32,-32l0,-32.54297c11.71094,-1.23437 22.76172,-5.5039 32,-12.76953c9.23828,7.27344 20.28906,11.53516 32,12.76953l0,32.54297c0,17.64844 -14.35156,32 -32,32zm48,-34.22266l0,-27.54687c4.76172,2.77734 8,7.88281 8,13.77734c0,5.89453 -3.23828,10.99219 -8,13.76953zm-48,-101.77734c30.87109,0 56,25.12109 56,56l0,4.44922c-4.72656,-2.75391 -10.14453,-4.44922 -16,-4.44922l-1.375,0c-12.45703,0 -24.16797,-4.84766 -32.96875,-13.65625l-5.65625,-5.66406l-5.65625,5.66406c-8.80859,8.80859 -20.51172,13.65625 -32.96875,13.65625l-1.375,0c-5.85547,0 -11.27344,1.69531 -16,4.44922l0,-4.44922c0,-30.87891 25.12891,-56 56,-56zm-48,74.22266l0,27.54687c-4.76172,-2.77734 -8,-7.88281 -8,-13.77734c0,-5.89453 3.23828,-10.99219 8,-13.76953zm0,0"/>
  <path fill="#636b6f" id="svg_5" d="m0,496l160,0l0,-208l-160,0l0,208zm16,-192l128,0l0,176l-128,0l0,-176zm0,0"/>
  <path fill="#636b6f" id="svg_6" d="m32,320l96,0l0,16l-96,0l0,-16zm0,0"/>
  <path fill="#636b6f" id="svg_7" d="m32,352l16,0l0,16l-16,0l0,-16zm0,0"/>
  <path fill="#636b6f" id="svg_8" d="m64,352l64,0l0,16l-64,0l0,-16zm0,0"/>
  <path fill="#636b6f" id="svg_9" d="m32,384l96,0l0,16l-96,0l0,-16zm0,0"/>
  <path fill="#636b6f" id="svg_10" d="m32,416l96,0l0,16l-96,0l0,-16zm0,0"/>
  <path fill="#636b6f" id="svg_11" d="m112,448l16,0l0,16l-16,0l0,-16zm0,0"/>
  <path fill="#636b6f" id="svg_12" d="m32,448l64,0l0,16l-64,0l0,-16zm0,0"/>
  <path fill="#636b6f" id="svg_13" d="m213.65625,357.65625l-11.3125,-11.3125l-37.65625,37.65625l37.65625,37.65625l11.3125,-11.3125l-18.34375,-18.34375l60.6875,0l0,-16l-60.6875,0l18.34375,-18.34375zm0,0"/>
  <path fill="#636b6f" id="svg_14" d="m88,128c0,-4.40625 3.58594,-8 8,-8l36.6875,0l-18.34375,18.34375l11.3125,11.3125l37.65625,-37.65625l-37.65625,-37.65625l-11.3125,11.3125l18.34375,18.34375l-36.6875,0c-13.23047,0 -24,10.76953 -24,24l0,144l16,0l0,-144zm0,0"/>
  <path fill="#636b6f" id="svg_15" d="m384,128l0,100.6875l-18.34375,-18.34375l-11.3125,11.3125l37.65625,37.65625l37.65625,-37.65625l-11.3125,-11.3125l-18.34375,18.34375l0,-100.6875c0,-13.23047 -10.76953,-24 -24,-24l-40,0l0,16l40,0c4.41406,0 8,3.59375 8,8zm0,0"/>
 </g>
</svg>