<?xml version="1.0" encoding="utf-8"?>
<!-- Generator: Adobe Illustrator 16.0.0, SVG Export Plug-In . SVG Version: 6.00 Build 0)  -->
<!DOCTYPE svg PUBLIC "-//W3C//DTD SVG 1.1//EN" "http://www.w3.org/Graphics/SVG/1.1/DTD/svg11.dtd">
<svg version="1.1" id="Layer_1" xmlns="http://www.w3.org/2000/svg" xmlns:xlink="http://www.w3.org/1999/xlink" x="0px" y="0px"
	 width="57.684px" height="38.664px" viewBox="75.083 46.827 57.684 38.664" enable-background="new 75.083 46.827 57.684 38.664"
	 xml:space="preserve">
<path fill="#474747" d="M93.167,46.827v32.428c0,3.442-4.047,6.236-9.042,6.236s-9.042-2.793-9.042-6.236V46.827H93.167z"/>
<path fill="#474747" d="M113.061,46.827v32.428c0,3.442-4.047,6.236-9.042,6.236s-9.042-2.794-9.042-6.236V46.827H113.061z"/>
<path fill="#474747" d="M132.767,46.827v32.428c0,3.442-4.047,6.236-9.042,6.236s-9.042-2.794-9.042-6.236V46.827H132.767z"/>
<g>
	<path fill="#FFFFFF" d="M82.628,76.043v-19.88c0-0.244-0.081-0.368-0.337-0.368H79.81c-0.224,0-0.361-0.112-0.361-0.393V53.98
		c0-0.244,0.106-0.393,0.361-0.393h8.113c0.212,0,0.362,0.106,0.362,0.393v1.421c0,0.231-0.1,0.393-0.362,0.393h-2.507
		c-0.237,0-0.306,0.106-0.306,0.368v19.88c0,0.231-0.106,0.393-0.362,0.393h-1.752C82.766,76.436,82.628,76.324,82.628,76.043z"/>
</g>
<g>
	<path fill="#FFFFFF" d="M98.905,71.054c0-0.231,0.063-0.355,0.25-0.355h1.728c0.162,0,0.28,0.081,0.299,0.318
		c0.037,1.934,0.966,3.599,2.631,3.599c1.578,0,2.532-1.397,2.532-3.318c0-5.045-7.122-7.009-7.122-12.971
		c0-2.868,1.684-5.001,4.428-5.001c2.894,0,4.509,2.183,4.509,5.151c0,0.25-0.081,0.374-0.268,0.374h-1.709
		c-0.162,0-0.287-0.062-0.299-0.318c-0.025-1.678-0.873-3.105-2.17-3.105c-1.272,0-2.114,1.247-2.052,2.856
		c0.237,4.197,7.065,6.735,7.065,12.865c0,3.585-2.208,5.556-4.908,5.556C100.813,76.704,98.905,74.565,98.905,71.054z"/>
</g>
<g>
	<path fill="#FFFFFF" d="M118.935,70.343V59.68c0-3.879,1.659-6.361,4.814-6.361c3.093,0,4.727,2.413,4.727,5.974
		c0,0.212-0.038,0.355-0.237,0.355h-1.821c-0.193,0-0.331-0.119-0.331-0.337c0-2.469-0.823-3.686-2.326-3.686
		c-1.49,0-2.351,1.235-2.351,3.686v11.387c0,2.451,0.861,3.686,2.351,3.686c1.509,0,2.345-1.235,2.345-3.686v-4.403
		c0-0.243-0.093-0.38-0.349-0.38h-1.746c-0.193,0-0.318-0.106-0.318-0.38v-1.222c0-0.231,0.081-0.38,0.318-0.38h4.097
		c0.193,0,0.318,0.106,0.318,0.38v6.155c0,3.71-1.59,6.229-4.683,6.229C120.6,76.704,118.935,74.222,118.935,70.343z"/>
</g>
</svg>
