<svg xmlns="http://www.w3.org/2000/svg" width="16" height="20" viewBox="0 0 16 20"><g><g><g><g><path fill="#ff3750" fill-opacity=".2" d="M14.414 4.414l-2.828-2.828A2 2 0 0 0 10.172 1H3a2 2 0 0 0-2 2v14a2 2 0 0 0 2 2h10a2 2 0 0 0 2-2V5.828a2 2 0 0 0-.586-1.414z"/><path fill="none" stroke="#ff3750" stroke-linecap="round" stroke-linejoin="round" stroke-miterlimit="20" stroke-width="1.5" d="M14.414 4.414v0l-2.828-2.828A2 2 0 0 0 10.172 1H3a2 2 0 0 0-2 2v14a2 2 0 0 0 2 2h10a2 2 0 0 0 2-2V5.828a2 2 0 0 0-.586-1.414z"/></g><g><path fill="none" stroke="#ff3750" stroke-linecap="round" stroke-linejoin="round" stroke-miterlimit="20" stroke-width="1.5" d="M15 6v0h-4a1 1 0 0 1-1-1V1v0"/></g><g><path fill="none" stroke="#ff3750" stroke-linecap="round" stroke-linejoin="round" stroke-miterlimit="20" stroke-width="1.5" d="M6.34 14.55h3.32"/></g><g><path fill="none" stroke="#ff3750" stroke-linecap="round" stroke-linejoin="round" stroke-miterlimit="20" stroke-width="1.5" d="M6.83 10.751V9.583c0-.322.261-.583.583-.583h1.168c.322 0 .583.261.583.583v1.168a.583.583 0 0 1-.583.583H7.413a.584.584 0 0 1-.583-.583z"/></g><g><path fill="none" stroke="#ff3750" stroke-linecap="round" stroke-linejoin="round" stroke-miterlimit="20" stroke-width="1.5" d="M4 15.421v-1.168c0-.322.261-.583.583-.583h1.168c.322 0 .583.261.583.583v1.168a.583.583 0 0 1-.583.583H4.583A.583.583 0 0 1 4 15.421z"/></g><g><path fill="none" stroke="#ff3750" stroke-linecap="round" stroke-linejoin="round" stroke-miterlimit="20" stroke-width="1.5" d="M9.67 15.421v0-1.168c0-.322.261-.583.583-.583h1.168c.322 0 .583.261.583.583v1.168a.584.584 0 0 1-.584.583h-1.168a.583.583 0 0 1-.582-.583z"/></g><g><path fill="none" stroke="#ff3750" stroke-linecap="round" stroke-linejoin="round" stroke-miterlimit="20" stroke-width="1.5" d="M10.24 13.67l-1.51-2.36"/></g><g><path fill="none" stroke="#ff3750" stroke-linecap="round" stroke-linejoin="round" stroke-miterlimit="20" stroke-width="1.5" d="M5.76 13.67l1.51-2.36"/></g></g><g/></g></g></svg>