<svg xmlns="http://www.w3.org/2000/svg" width="20" height="16" viewBox="0 0 20 16"><g><g><g/><g><g transform="rotate(-90 10 8)"><g><path fill="#cb4a32" fill-opacity=".2" d="M16.414 2.414L13.586-.414A2 2 0 0 0 12.172-1H5a2 2 0 0 0-2 2v14a2 2 0 0 0 2 2h10a2 2 0 0 0 2-2V3.828a2 2 0 0 0-.586-1.414z"/><path fill="none" stroke="#cb4a32" stroke-linecap="round" stroke-linejoin="round" stroke-miterlimit="20" stroke-width="1.5" d="M16.414 2.414v0L13.586-.414A2 2 0 0 0 12.172-1H5a2 2 0 0 0-2 2v14a2 2 0 0 0 2 2h10a2 2 0 0 0 2-2V3.828a2 2 0 0 0-.586-1.414z"/></g><g><path fill="none" stroke="#cb4a32" stroke-linecap="round" stroke-linejoin="round" stroke-miterlimit="20" stroke-width="1.5" d="M17 4v0h-4a1 1 0 0 1-1-1v-4 0"/></g></g><g><g><path fill="none" stroke="#cb4a32" stroke-linecap="round" stroke-linejoin="round" stroke-miterlimit="20" stroke-width="1.5" d="M11.995 5v3.4L9.52 10.975v0"/></g><g><path fill="none" stroke="#cb4a32" stroke-linecap="round" stroke-linejoin="round" stroke-miterlimit="20" stroke-width="1.5" d="M14.475 6.025a3.5 3.5 0 1 1-4.95 4.95 3.5 3.5 0 0 1 4.95-4.95"/></g></g></g></g></g></svg>