<svg xmlns="http://www.w3.org/2000/svg" width="20" height="19" viewBox="0 0 20 19"><g><g><g><g><path fill="none" stroke="#169bc8" stroke-linecap="round" stroke-linejoin="round" stroke-miterlimit="20" stroke-width="1.5" d="M18 3.04v6.989"/></g><g><path fill="none" stroke="#169bc8" stroke-linecap="round" stroke-linejoin="round" stroke-miterlimit="20" stroke-width="1.5" d="M19 16.03h-6"/></g><g><path fill="none" stroke="#169bc8" stroke-linecap="round" stroke-linejoin="round" stroke-miterlimit="20" stroke-width="1.5" d="M17 14.03v0l2 2v0l-2 2v0"/></g><g><path fill="none" stroke="#169bc8" stroke-linecap="round" stroke-linejoin="round" stroke-miterlimit="20" stroke-width="1.5" d="M9 14.029v0H3a2 2 0 0 1-2-2V3.04v0"/></g><g><path fill="none" stroke="#169bc8" stroke-linecap="round" stroke-linejoin="round" stroke-miterlimit="20" stroke-width="1.5" d="M3.011 1.03H15.99c1.11 0 2.011.9 2.011 2.011v0a2.01 2.01 0 0 1-.883 1.664l-5.357 3.631a4.031 4.031 0 0 1-4.522 0l-5.356-3.63A2.011 2.011 0 0 1 1 3.042v-.001C1 1.93 1.9 1.03 3.011 1.03z"/></g></g><g/></g></g></svg>