<svg xmlns="http://www.w3.org/2000/svg" width="20" height="20" viewBox="0 0 20 20"><g><g><g/><g><path fill="none" stroke="#169bc8" stroke-linecap="round" stroke-linejoin="round" stroke-miterlimit="20" stroke-width="1.5" d="M11.91 8.09a2.7 2.7 0 1 1-3.82 3.82 2.7 2.7 0 0 1 3.82-3.82"/></g><g><path fill="none" stroke="#169bc8" stroke-linecap="round" stroke-linejoin="round" stroke-miterlimit="20" stroke-width="1.5" d="M3.25 10c0 .297.026.594.062.882l-1.587 1.242A.898.898 0 0 0 1.5 13.28l1.412 2.443a.898.898 0 0 0 1.112.384l1.422-.571a.912.912 0 0 1 .846.099c.22.146.448.28.684.4.27.137.466.382.51.682l.217 1.513c.062.442.441.77.887.77h2.818a.897.897 0 0 0 .888-.77l.217-1.512a.918.918 0 0 1 .512-.683c.235-.118.462-.251.68-.396a.915.915 0 0 1 .85-.102l1.42.57a.899.899 0 0 0 1.112-.384l1.412-2.443a.898.898 0 0 0-.224-1.156l-1.588-1.242c.035-.288.062-.585.062-.882 0-.297-.027-.594-.063-.882l1.588-1.242a.898.898 0 0 0 .224-1.156l-1.412-2.443a.898.898 0 0 0-1.111-.384l-1.42.57a.918.918 0 0 1-.85-.102 6.597 6.597 0 0 0-.68-.396.918.918 0 0 1-.513-.683l-.216-1.512A.897.897 0 0 0 11.41 1H8.59a.897.897 0 0 0-.887.77l-.218 1.514a.92.92 0 0 1-.51.682c-.236.12-.464.255-.684.4a.917.917 0 0 1-.847.098l-1.42-.571a.898.898 0 0 0-1.113.384L1.5 6.72a.898.898 0 0 0 .224 1.156l1.588 1.242A7.138 7.138 0 0 0 3.25 10z"/></g></g></g></svg>