<svg xmlns="http://www.w3.org/2000/svg" width="16" height="20" viewBox="0 0 16 20"><g><g><g><path fill="none" stroke="#169bc8" stroke-linecap="round" stroke-linejoin="round" stroke-miterlimit="20" stroke-width="1.5" d="M13 19H3a2 2 0 0 1-2-2V9a2 2 0 0 1 2-2h10a2 2 0 0 1 2 2v8a2 2 0 0 1-2 2z"/></g><g><path fill="none" stroke="#169bc8" stroke-linecap="round" stroke-linejoin="round" stroke-miterlimit="20" stroke-width="1.5" d="M8 15.09V12.5"/></g><g><path fill="none" stroke="#169bc8" stroke-linecap="round" stroke-linejoin="round" stroke-miterlimit="20" stroke-width="1.5" d="M8.53 11.22a.75.75 0 1 1-1.06 1.06.75.75 0 0 1 1.06-1.06"/></g><g><path fill="none" stroke="#169bc8" stroke-linecap="round" stroke-linejoin="round" stroke-miterlimit="20" stroke-width="1.5" d="M4 7v0-2 0a4 4 0 0 1 4-4v0a4 4 0 0 1 4 4v2"/></g></g></g></svg>