<svg xmlns="http://www.w3.org/2000/svg" width="33" height="24" viewBox="0 0 33 24"><defs><mask id="ya6gb" width="2" height="2" x="-1" y="-1"><path fill="#fff" d="M2 1h29v20H2z"/><path d="M2 4a3 3 0 0 1 3-3h23a3 3 0 0 1 3 3v14a3 3 0 0 1-3 3H5a3 3 0 0 1-3-3z"/></mask><filter id="ya6ga" width="55" height="47" x="-11" y="-12" filterUnits="userSpaceOnUse"><feOffset dy="1" in="SourceGraphic" result="FeOffset1052Out"/><feGaussianBlur in="FeOffset1052Out" result="FeGaussianBlur1053Out" stdDeviation="1.2 1.2"/></filter></defs><g><g><g><g filter="url(#ya6ga)"><path fill="none" d="M2 4a3 3 0 0 1 3-3h23a3 3 0 0 1 3 3v14a3 3 0 0 1-3 3H5a3 3 0 0 1-3-3z" mask="url(&quot;#ya6gb&quot;)"/><path fill="#051f28" fill-opacity=".1" d="M2 4a3 3 0 0 1 3-3h23a3 3 0 0 1 3 3v14a3 3 0 0 1-3 3H5a3 3 0 0 1-3-3z"/></g><path fill="#e5e9ea" d="M2 4a3 3 0 0 1 3-3h23a3 3 0 0 1 3 3v14a3 3 0 0 1-3 3H5a3 3 0 0 1-3-3z"/></g><g><g><path fill="#6e7b7f" d="M10 13a2 2 0 1 0 0-4 2 2 0 0 0 0 4z"/></g><g><path fill="#6e7b7f" d="M17 13a2 2 0 1 0 0-4 2 2 0 0 0 0 4z"/></g><g><path fill="#6e7b7f" d="M24 13a2 2 0 1 0 0-4 2 2 0 0 0 0 4z"/></g></g></g></g></svg>