<svg xmlns="http://www.w3.org/2000/svg" width="20" height="20" viewBox="0 0 20 20"><g><g><g/><g><path fill="none" stroke="#169bc8" stroke-linecap="round" stroke-linejoin="round" stroke-miterlimit="20" stroke-width="1.5" d="M10 19v0a9 9 0 0 1-9-9v0a9 9 0 0 1 9-9v0a9 9 0 0 1 9 9v0a9 9 0 0 1-9 9z"/></g><g><path fill="none" stroke="#169bc8" stroke-linecap="round" stroke-linejoin="round" stroke-miterlimit="20" stroke-width="1.5" d="M11.591 5.659a2.25 2.25 0 1 1-3.182 3.182 2.25 2.25 0 0 1 3.182-3.182"/></g><g><path fill="none" stroke="#169bc8" stroke-linecap="round" stroke-linejoin="round" stroke-miterlimit="20" stroke-width="1.5" d="M14.322 14.543a2.905 2.905 0 0 0-2.865-2.453H8.545a2.904 2.904 0 0 0-2.865 2.453"/></g></g></g></svg>