<svg xmlns="http://www.w3.org/2000/svg" width="256" height="73" viewBox="0 0 256 73"><defs><linearGradient id="7pvna" x1="31.8" x2="31.8" y1="0" y2="69.6" gradientUnits="userSpaceOnUse"><stop offset="0" stop-color="#30ebf2"/><stop offset="1" stop-color="#2d97ee"/></linearGradient></defs><g><g><g><path fill="url(#7pvna)" d="M11.8 31.102l2.383-1.384 1.377 2.397-2.384 1.384zm3.76 1.013l2.384-1.384 1.376 2.397-2.384 1.384zm3.76 1.017l2.384-1.388 1.377 2.404-2.385 1.388zm-1.376-2.401l-1.377-2.398 2.384-1.383 1.377 2.397zm.384-9.875l1.376 2.397-2.384 1.384-1.376-2.397zm8.64 3.982l-2.38 1.385-.005-.008-.004.003-1.372-2.396 2.384-1.388zm-2.38 1.385l1.372 2.39-2.384 1.384-1.377-2.398 2.38-1.381.004.008zM14.92 42.075l2.023 3.521 1.589-2.766-1.228-2.14zM6.294 21.513l2.384-1.384 1.376 2.397-2.383 1.384zm6.139-.37l-2.748-4.796 2.38-1.384 2.747 4.795zm-2.379 1.383l2.384-1.384 1.377 2.397-2.385 1.384zm-6.513-5.804l2.384-1.388 1.376 2.404-2.379 1.385 1.372 2.39-2.384 1.384 4.13 7.192 2.383-1.384-1.376-2.398 2.383-1.384 1.377 2.398-2.384 1.384 1.376 2.397-2.383 1.384 4.129 7.191 2.383-1.383-1.376-2.398 2.384-1.384 1.377 2.397-2.385 1.385 1.377 2.397 2.384-1.384.433.755.1-.176 7.695-13.402-.95-1.652 2.385-1.384-2.496-4.347-2.384 1.384-1.374-2.393-4.767 2.764-2.756-4.795 2.387-1.384 1.378 2.397 2.388-1.384 1.375 2.394 2.376-1.38-1.376-2.398-2.384 1.384-1.376-2.397 2.384-1.384-1.377-2.398-2.383 1.385 1.376 2.397-2.384 1.384-1.332-2.32-4.558 2.606-1.376-2.397 2.384-1.384L11.7 8.784 9.316 10.17l1.377 2.397-4.768 2.768-1.376-2.397 2.383-1.384-1.376-2.398-2.384 1.384 1.377 2.398-2.384 1.384 1.376 2.397-2.384 1.384L2.534 20.5l2.38-1.382zm1.381 2.4l-.004-.007-.004.003.004.007zM.992 9.256l1.719-.995-.993-1.721L0 7.533zm2.72-5.582l.64 1.113 1.105-.642-.639-1.113zm4.871 1.462l-1.718.998.993 1.728 1.718-.998zm3.542.76l.632 1.112 1.094-.642-.632-1.113zm3.146 1.002l.993 1.728 1.718-.998-.993-1.728zm7.832 11.187l-.007.004.002.004.008-.004zM14.21 2.714l1.1-.639L14.672.97l-1.1.639zM9.925 1.106L9.287 0 8.18.639l.64 1.106zm12.74 38.781l-4.498 7.836L30.727 69.6 63.6 12.357H38.471l-14.95 26.037h.001z"/></g><g><g><path fill="#102b57" d="M77.054 68.347c-.461-.26-.836-.6-1.124-1.027a4.43 4.43 0 0 1-.638-1.47 7.226 7.226 0 0 1-.202-1.703c0-.59.072-1.143.221-1.647.149-.508.37-.945.667-1.315a3.1 3.1 0 0 1 1.133-.869c.456-.21.994-.316 1.613-.316.571 0 1.066.115 1.493.35.427.235.782.547 1.075.936.288.384.504.826.648 1.32a5.65 5.65 0 0 1 .211 1.536c0 .542-.062 1.09-.187 1.637a4.754 4.754 0 0 1-.595 1.478 3.203 3.203 0 0 1-1.056 1.066c-.432.273-.965.408-1.594.408-.657 0-1.214-.13-1.665-.384zm-2.674.768h.686v-2.127h.039c.038.12.13.312.278.572.149.259.365.523.648.787.283.269.648.499 1.085.696.437.197.974.297 1.603.297.331 0 .735-.062 1.205-.177.47-.115.922-.355 1.354-.72.432-.365.806-.888 1.113-1.575.312-.681.466-1.593.466-2.726 0-.662-.082-1.286-.25-1.858a4.267 4.267 0 0 0-.768-1.507 3.62 3.62 0 0 0-1.286-1.017c-.514-.245-1.123-.37-1.829-.37-.398 0-.782.048-1.152.14-.37.095-.715.234-1.037.426-.321.188-.61.423-.854.701-.25.274-.442.6-.576.97h-.039V55.91h-.686z"/></g><g><path fill="#102b57" d="M83.36 59.61h.83l3.533 8.678 3.255-8.678h.796l-4.07 10.526c-.197.47-.38.874-.547 1.21-.168.34-.355.59-.567.749a1.715 1.715 0 0 1-.878.36c-.34.043-.787.067-1.34.067v-.61c.505 0 .903-.038 1.186-.12.284-.081.548-.244.797-.49.135-.134.279-.383.427-.748.15-.365.332-.86.557-1.488z"/></g><g><path fill="#102b57" d="M96.57 56.61v-.7h10.118v.7h-4.66v12.505h-.816V56.61z"/></g><g><path fill="#102b57" d="M106.386 61.711h.058c.086-.307.244-.6.47-.868.23-.27.504-.505.83-.701.327-.197.692-.35 1.09-.452a4.468 4.468 0 0 1 1.248-.139v.701c-.37-.048-.792-.01-1.267.11-.475.125-.927.394-1.359.816a6.096 6.096 0 0 0-.45.538 2.58 2.58 0 0 0-.322.576 3.538 3.538 0 0 0-.202.7c-.048.26-.082.567-.091.927v5.199h-.701v-9.51h.7v2.103z"/></g><g><path fill="#102b57" d="M110.99 69.12v-9.51h.7v9.51zm0-11.304V55.91h.7v1.906z"/></g><g><path fill="#102b57" d="M120.251 63.71a.869.869 0 0 1-.005.007v-.006zm-.005.007v1.773c0 .12-.033.36-.1.71-.068.35-.226.714-.471 1.088-.25.374-.605.71-1.076.997-.47.293-1.105.437-1.907.437-.778 0-1.392-.168-1.834-.508-.447-.34-.668-.864-.668-1.564 0-.44.087-.8.26-1.079.173-.278.398-.498.677-.657.278-.158.59-.273.936-.34.346-.067.692-.12 1.038-.158l1.186-.11c.432-.039.826-.096 1.176-.168.348-.076.61-.214.783-.421zm.008 3.517v.499c0 .197.019.379.048.547.033.168.09.312.177.437a.858.858 0 0 0 .38.297c.167.072.393.11.676.11.197 0 .384-.023.571-.071v-.59c-.22.038-.393.057-.518.057-.158 0-.283-.034-.37-.1a.57.57 0 0 1-.187-.27 1.45 1.45 0 0 1-.062-.37 11.57 11.57 0 0 1-.01-.407v-5.53c0-.725-.264-1.315-.787-1.766-.523-.451-1.358-.677-2.506-.677-1.147 0-2.03.264-2.654.787-.624.523-.96 1.31-1.008 2.357h.7c.049-.85.337-1.488.86-1.906.523-.417 1.214-.628 2.064-.628.48 0 .888.048 1.22.148.335.101.604.236.815.408.207.173.36.37.461.59.1.222.149.462.149.72 0 .332-.02.61-.058.831a.938.938 0 0 1-.278.547c-.149.14-.37.25-.658.332-.293.081-.691.139-1.195.177l-1.09.091c-.384.034-.782.096-1.195.183a3.68 3.68 0 0 0-1.128.437c-.336.201-.619.48-.84.83-.22.35-.331.802-.331 1.358 0 .912.274 1.59.83 2.026.552.437 1.335.658 2.348.658.456 0 .873-.058 1.257-.168.384-.11.725-.264 1.027-.461.303-.197.557-.423.768-.677.207-.254.37-.523.48-.806z"/></g><g><path fill="#102b57" d="M124.05 55.91v13.21h-.7V55.91z"/></g><g><path fill="#102b57" d="M126.42 55.91h8.88v.7h-8.064v5.29h7.584v.701h-7.584v5.808h8.16v.701h-8.971v-13.2z"/></g><g><path fill="#102b57" d="M138.874 68.372a3.19 3.19 0 0 1-1.1-.97 4.447 4.447 0 0 1-.647-1.398 6.262 6.262 0 0 1-.211-1.618c0-.567.062-1.119.192-1.647s.34-.999.628-1.407a3.24 3.24 0 0 1 1.1-.97c.441-.24.979-.36 1.608-.36.604 0 1.132.125 1.584.37.446.244.816.576 1.099.989.283.413.494.883.638 1.407a6.262 6.262 0 0 1 0 3.217c-.144.523-.36.99-.648 1.397a3.281 3.281 0 0 1-1.09.98c-.441.245-.96.37-1.564.37-.615 0-1.147-.12-1.589-.36zM144 67.085v2.045h.701V55.92h-.7v5.827h-.039c-.125-.37-.302-.7-.538-.998a3.184 3.184 0 0 0-.825-.74 4.025 4.025 0 0 0-1.027-.45 4.078 4.078 0 0 0-1.128-.159c-.716 0-1.34.13-1.868.389s-.97.614-1.32 1.056c-.35.441-.614.97-.787 1.579a7.198 7.198 0 0 0-.259 1.968c0 .653.082 1.282.24 1.877a4.74 4.74 0 0 0 .74 1.579c.33.456.758.82 1.276 1.09.518.273 1.133.408 1.848.408.85 0 1.574-.192 2.165-.567.59-.379 1.085-.94 1.478-1.694z"/></g><g><path fill="#102b57" d="M152.13 60.326c.428.22.793.522 1.08.896.289.379.505.81.649 1.304.139.494.211 1.007.211 1.534 0 .542-.072 1.06-.211 1.544a4.05 4.05 0 0 1-.648 1.304 3.088 3.088 0 0 1-1.08.906c-.432.22-.936.33-1.517.33-.552 0-1.042-.105-1.469-.32a3.142 3.142 0 0 1-1.075-.878 3.737 3.737 0 0 1-.648-1.304 5.823 5.823 0 0 1-.211-1.577c0-.503.067-.997.211-1.486.14-.49.35-.92.629-1.304a3.17 3.17 0 0 1 1.056-.925c.427-.235.926-.35 1.507-.35.58 0 1.085.11 1.517.326zm2.646-.715h-.677v1.977h-.039a3.19 3.19 0 0 0-1.358-1.627 4 4 0 0 0-2.083-.571c-.667 0-1.253.125-1.767.38-.513.254-.94.59-1.286 1.017-.346.422-.61.921-.787 1.488a5.974 5.974 0 0 0-.269 1.795c0 .662.082 1.282.25 1.848a4.32 4.32 0 0 0 .758 1.488c.34.422.763.758 1.277.998.513.24 1.123.36 1.824.36.816 0 1.512-.187 2.083-.556.571-.37 1.027-.908 1.358-1.608h.039v2.184c0 .403-.053.806-.159 1.21a2.788 2.788 0 0 1-.547 1.074c-.259.317-.61.572-1.046.768-.437.197-.984.298-1.637.298a4.56 4.56 0 0 1-1.109-.13 2.85 2.85 0 0 1-.936-.417 2.24 2.24 0 0 1-.677-.73c-.177-.297-.278-.657-.316-1.075h-.701c.024.557.139 1.018.34 1.397.202.379.471.681.802.907.331.226.72.394 1.162.5.441.105.917.158 1.42.158.812 0 1.484-.11 2.012-.341.533-.23.945-.533 1.248-.917.302-.38.513-.82.638-1.32.12-.5.183-1.018.183-1.546z"/></g><g><path fill="#102b57" d="M164.124 63.864h-6.974c.038-.496.14-.978.298-1.45.163-.468.388-.883.686-1.234a3.43 3.43 0 0 1 1.094-.854c.432-.212.932-.323 1.503-.323.533 0 1.008.111 1.42.319.413.207.764.491 1.057.843.288.352.508.762.657 1.224.149.463.235.955.26 1.475zm-6.988.58h7.694c0-.048.005-.11.01-.192.004-.077.01-.149.01-.211 0-.643-.092-1.243-.27-1.805a4.55 4.55 0 0 0-.787-1.478 3.648 3.648 0 0 0-1.286-1.008c-.514-.245-1.1-.37-1.767-.37-.73 0-1.358.14-1.896.418-.532.278-.979.648-1.339 1.108-.36.461-.629.999-.806 1.608a6.814 6.814 0 0 0-.269 1.916c0 .69.086 1.334.26 1.934.172.6.436 1.118.786 1.555.356.437.792.783 1.316 1.037.523.254 1.137.38 1.838.38 1.147 0 2.069-.294 2.765-.889.696-.595 1.147-1.445 1.358-2.553h-.7c-.212.888-.596 1.584-1.153 2.083-.552.499-1.31.749-2.26.749-.581 0-1.095-.11-1.532-.332a3.137 3.137 0 0 1-1.094-.907 4.104 4.104 0 0 1-.658-1.33 5.574 5.574 0 0 1-.22-1.588z"/></g></g><g><g><path fill="#102b57" d="M81.285 46.056h-4.08L69.28 23.88h4.406l5.501 16.027h.12l5.501-16.027h4.406z"/></g><g><path fill="#102b57" d="M95.624 28.94v17.122h-4.2V28.94zm-2.102-6.24a2.497 2.497 0 0 1 2.481 2.482 2.497 2.497 0 0 1-2.481 2.481 2.497 2.497 0 0 1-2.482-2.481 2.497 2.497 0 0 1 2.482-2.482z"/></g><g><path fill="#102b57" d="M99.17 28.934h4.2V31.3h.058c.888-1.507 2.16-2.87 4.348-2.87h.413v4.258h-1.037c-2.01 0-3.638 1.57-3.782 3.547v9.816h-4.2z"/></g><g><path fill="#102b57" d="M109.84 32.303v-3.37h1.536V25.06h4.2v3.874h2.928v3.37h-2.928v8.99c0 .59.475 1.036 1.003 1.036h1.92v3.725h-1.92c-3.077 0-5.203-1.953-5.203-5.054v-8.693h-1.536z"/></g><g><path fill="#102b57" d="M136.888 28.94v17.122h-4.2v-2.63h-.057c-.83 1.626-2.453 3.134-4.968 3.134-3.931 0-6.653-2.986-6.653-7.272v-10.35h4.2v10.052c0 2.098 1.656 3.782 3.725 3.782 2.097 0 3.753-1.684 3.753-3.782V28.945h4.2z"/></g><g><path fill="#102b57" d="M154.587 37.483c0 2.9-2.306 5.295-5.237 5.295-2.897 0-5.237-2.396-5.237-5.295 0-2.865 2.335-5.26 5.237-5.26 2.93 0 5.242 2.395 5.237 5.26zm-.005 8.583h4.2V28.944h-4.2v2.482h-.058c-1.186-1.594-3.014-2.986-5.707-2.986-4.997 0-9.077 3.874-9.077 9.048 0 5.203 4.08 9.077 9.077 9.077 2.87 0 4.761-1.656 5.707-3.255h.058z"/></g><g><path fill="#102b57" d="M162.32 23.88h4.2v22.176h-4.2z"/></g><g><path fill="#102b57" d="M189.816 34.968c0 4.051-3.134 7.363-7.008 7.363h-3.518V27.605h3.518c3.874 0 7.008 3.34 7.008 7.363zm-7.008-11.088h-7.718v22.176h7.718c6.418 0 11.386-4.67 11.386-11.088 0-6.418-4.968-11.088-11.386-11.088z"/></g><g><path fill="#102b57" d="M200.22 35.816c.413-2.064 2.247-3.837 4.79-3.837 2.574 0 4.287 1.773 4.7 3.837zm13.992 1.662c0-5.054-4.142-9.048-9.196-9.048-5.146 0-9.346 3.874-9.346 9.048 0 5.174 4.166 9.077 9.283 9.077 3.811 0 7.181-2.189 8.395-5.65h-4.555c-.681 1.066-2.069 2.011-3.845 2.011-2.395 0-4.348-1.684-4.79-3.576h13.81c.148-.648.24-1.21.244-1.862z"/></g><g><path fill="#102b57" d="M219.88 37.507c0-2.897 2.304-5.29 5.232-5.29 2.894 0 5.232 2.393 5.232 5.29 0 2.862-2.333 5.255-5.232 5.255-2.928 0-5.232-2.393-5.232-5.255zm0-8.573h-4.2V51.11h4.2v-7.54h.058c1.185 1.593 3.014 2.985 5.707 2.985 4.997 0 9.077-3.874 9.077-9.048 0-5.203-4.08-9.077-9.077-9.077-2.87 0-4.762 1.656-5.707 3.254h-.058z"/></g><g><path fill="#102b57" d="M251.192 37.473c0 2.895-2.304 5.287-5.232 5.287-2.866 0-5.232-2.392-5.232-5.287 0-2.862 2.361-5.254 5.232-5.254 2.923 0 5.232 2.392 5.232 5.254zm4.377.005c0-5.174-4.526-9.048-9.61-9.048-5.054 0-9.609 3.874-9.609 9.048 0 5.203 4.555 9.077 9.61 9.077 5.083 0 9.61-3.874 9.61-9.077z"/></g></g></g></g></svg>