<svg xmlns="http://www.w3.org/2000/svg" width="16" height="20" viewBox="0 0 16 20"><g><g><g/><g><g><path fill="#2a5699" fill-opacity=".2" d="M14.414 4.414l-2.828-2.828A2 2 0 0 0 10.172 1H3a2 2 0 0 0-2 2v14a2 2 0 0 0 2 2h10a2 2 0 0 0 2-2V5.828a2 2 0 0 0-.586-1.414z"/><path fill="none" stroke="#2a5699" stroke-linecap="round" stroke-linejoin="round" stroke-miterlimit="20" stroke-width="1.5" d="M14.414 4.414v0l-2.828-2.828A2 2 0 0 0 10.172 1H3a2 2 0 0 0-2 2v14a2 2 0 0 0 2 2h10a2 2 0 0 0 2-2V5.828a2 2 0 0 0-.586-1.414z"/></g><g><path fill="none" stroke="#2a5699" stroke-linecap="round" stroke-linejoin="round" stroke-miterlimit="20" stroke-width="1.5" d="M15 6v0h-4a1 1 0 0 1-1-1V1v0"/></g><g><path fill="none" stroke="#2a5699" stroke-linecap="round" stroke-linejoin="round" stroke-miterlimit="20" stroke-width="1.5" d="M4 9h6"/></g><g><path fill="none" stroke="#2a5699" stroke-linecap="round" stroke-linejoin="round" stroke-miterlimit="20" stroke-width="1.5" d="M4 12h6"/></g><g><path fill="none" stroke="#2a5699" stroke-linecap="round" stroke-linejoin="round" stroke-miterlimit="20" stroke-width="1.5" d="M4 15h4.33"/></g></g></g></g></svg>